<svg width="36" height="36" viewBox="0 0 36 36" fill="none" xmlns="http://www.w3.org/2000/svg">
<g clip-path="url(#clip0_156_258)">
<path d="M36 0.000488281H0V36.0003H36V0.000488281Z" fill="#F7DF1E"/>
<path d="M24.1827 28.1255C24.9079 29.3095 25.8513 30.1798 27.5199 30.1798C28.9216 30.1798 29.817 29.4792 29.817 28.5112C29.817 27.3512 28.8971 26.9404 27.3542 26.2655L26.5085 25.9026C24.0673 24.8626 22.4456 23.5598 22.4456 20.8055C22.4456 18.2683 24.3788 16.3369 27.3999 16.3369C29.5507 16.3369 31.097 17.0855 32.2113 19.0455L29.577 20.7369C28.997 19.6969 28.3713 19.2872 27.3999 19.2872C26.4091 19.2872 25.781 19.9158 25.781 20.7369C25.781 21.7518 26.4096 22.1626 27.861 22.7912L28.7068 23.1535C31.581 24.386 33.2039 25.6426 33.2039 28.4678C33.2039 31.5135 30.8113 33.182 27.5982 33.182C24.4564 33.182 22.4267 31.6849 21.4336 29.7226L24.1827 28.1255ZM12.2325 28.4186C12.7639 29.3615 13.2473 30.1586 14.4096 30.1586C15.521 30.1586 16.2222 29.7238 16.2222 28.0329V16.5301H19.605V28.0786C19.605 31.5815 17.5513 33.1758 14.5536 33.1758C11.845 33.1758 10.2765 31.774 9.47876 30.0858L12.2325 28.4186Z" fill="black"/>
</g>
<defs>
<clipPath id="clip0_156_258">
<rect width="36" height="36" fill="white"/>
</clipPath>
</defs>
</svg>
