<svg width="36" height="36" viewBox="0 0 36 36" fill="none" xmlns="http://www.w3.org/2000/svg">
<g clip-path="url(#clip0_156_265)">
<path d="M0 0.000488281H36V36.0003H0V0.000488281Z" fill="#017ACB"/>
<path d="M17.2857 13.3317H19.0126V16.3129H14.3438V29.5767L14.22 29.6104C14.0513 29.6554 11.8294 29.6554 11.3513 29.6048L10.9688 29.571V16.3129H6.30005V13.3317L7.77943 13.3148C8.58943 13.3035 10.6707 13.3035 12.4032 13.3148C14.1357 13.326 16.3294 13.3317 17.2857 13.3317ZM30.4651 28.1704C29.7789 28.896 29.042 29.301 27.8157 29.6329C27.2813 29.7792 27.1913 29.7848 25.9876 29.7792C24.7838 29.7735 24.6882 29.7735 24.1032 29.6217C22.5901 29.2335 21.3694 28.4742 20.5369 27.3998C20.3007 27.096 19.9126 26.466 19.9126 26.3873C19.9126 26.3648 19.9688 26.3142 20.0419 26.2804C20.1151 26.2467 20.2669 26.151 20.3907 26.0779C20.5144 26.0048 20.7394 25.8698 20.8913 25.791C21.0432 25.7123 21.4819 25.4535 21.8645 25.2229C22.247 24.9923 22.5957 24.8067 22.6351 24.8067C22.6745 24.8067 22.7476 24.8854 22.8038 24.981C23.1413 25.5492 23.9288 26.2748 24.4857 26.5223C24.8288 26.6685 25.5882 26.8317 25.9538 26.8317C26.2913 26.8317 26.9101 26.6854 27.242 26.5335C27.5963 26.3704 27.7764 26.2073 27.9901 25.881C28.1364 25.6504 28.1532 25.5885 28.1476 25.1498C28.1476 24.7448 28.1251 24.6323 28.0126 24.4467C27.6976 23.9292 27.2701 23.6592 25.5376 22.8942C23.7488 22.101 22.9445 21.6285 22.2919 20.9929C21.8082 20.5204 21.7126 20.391 21.4088 19.8004C21.0151 19.041 20.9644 18.7935 20.9588 17.6629C20.9532 16.8698 20.9701 16.611 21.0544 16.341C21.1726 15.936 21.5551 15.1542 21.7294 14.9573C22.0894 14.5354 22.2188 14.406 22.472 14.1979C23.237 13.5679 24.4295 13.1517 25.5713 13.1123C25.7007 13.1123 26.1282 13.1348 26.5276 13.1629C27.6751 13.2585 28.457 13.5398 29.2107 14.1417C29.7789 14.5917 30.6395 15.6492 30.5551 15.7898C30.4989 15.8742 28.2545 17.3704 28.1082 17.4154C28.0182 17.4435 27.9564 17.4098 27.8326 17.2635C27.0676 16.3467 26.7582 16.1498 26.0157 16.1048C25.487 16.071 25.2057 16.1329 24.8513 16.3692C24.4801 16.6167 24.3001 16.9935 24.3001 17.5167C24.3057 18.2817 24.5982 18.6417 25.6782 19.176C26.3757 19.5192 26.972 19.8004 27.017 19.8004C27.0845 19.8004 28.5301 20.5204 28.907 20.7454C30.662 21.7748 31.3764 22.8323 31.562 24.6548C31.697 26.0273 31.3089 27.2817 30.4651 28.1704Z" fill="white"/>
</g>
<defs>
<clipPath id="clip0_156_265">
<rect width="36" height="36" fill="white"/>
</clipPath>
</defs>
</svg>
