<svg width="36" height="36" viewBox="0 0 36 36" fill="none" xmlns="http://www.w3.org/2000/svg">
<g clip-path="url(#clip0_156_317)">
<path d="M18.0523 0.0986328L19.013 1.903C19.229 2.23597 19.463 2.5307 19.7386 2.80518C20.5466 3.6031 21.2997 4.45476 21.9929 5.35425C23.6207 7.49157 24.7186 9.86516 25.5027 12.4322C25.9729 14.0003 26.2282 15.609 26.2474 17.2356C26.3261 22.0986 24.659 26.2743 21.2977 29.7447C20.751 30.295 20.1603 30.7999 19.5316 31.2543C19.1986 31.2543 19.0411 30.999 18.9039 30.7638C18.654 30.3279 18.4876 29.8491 18.4134 29.3521C18.2953 28.7638 18.2177 28.1754 18.2559 27.5679V27.2935C18.2289 27.235 17.9353 0.236997 18.0523 0.0986328Z" fill="#599636"/>
<path d="M18.0525 0.0391889C18.0131 -0.0395554 17.9737 0.0200652 17.9344 0.0583124C17.9535 0.452033 17.8162 0.803008 17.6014 1.13823C17.3652 1.47121 17.0524 1.72656 16.7386 2.00104C14.995 3.51068 13.6225 5.33418 12.5235 7.37365C11.0611 10.1184 10.3074 13.0601 10.0937 16.157C9.99581 17.274 10.4469 21.2158 10.799 22.353C11.7597 25.3723 13.4853 27.9023 15.7205 30.0981C16.2695 30.6268 16.8567 31.1173 17.4642 31.5886C17.6407 31.5886 17.6599 31.4311 17.7004 31.3141C17.7778 31.0638 17.8368 30.8081 17.877 30.5492L18.2707 27.6086L18.0525 0.0391889Z" fill="#6CAC48"/>
<path d="M19.0134 32.4492C19.0527 31.9992 19.2687 31.6257 19.5039 31.2534C19.2676 31.1555 19.0921 30.9609 18.9549 30.7438C18.8365 30.5382 18.7386 30.3216 18.6624 30.097C18.3879 29.2735 18.3294 28.4096 18.2507 27.5682V27.0586C18.1528 27.1373 18.1326 27.8033 18.1326 27.9023C18.0753 28.7916 17.9573 29.676 17.7794 30.5492C17.7209 30.9024 17.6815 31.2545 17.4644 31.5683C17.4644 31.6077 17.4644 31.6471 17.4835 31.7056C17.8367 32.745 17.9335 33.8036 17.9931 34.8823V35.2761C17.9931 35.7463 17.974 35.6473 18.3643 35.8048C18.5218 35.8633 18.6973 35.8835 18.8548 36.0007C18.9729 36.0007 18.992 35.9026 18.992 35.8239L18.9335 35.1771V33.3727C18.9144 33.0577 18.9729 32.745 19.0122 32.4503L19.0134 32.4492Z" fill="#C2BFBF"/>
</g>
<defs>
<clipPath id="clip0_156_317">
<rect width="36" height="36" fill="white"/>
</clipPath>
</defs>
</svg>
