<svg width="36" height="36" viewBox="0 0 36 36" fill="none" xmlns="http://www.w3.org/2000/svg">
<g clip-path="url(#clip0_156_326)">
<path d="M35.45 21.5653C35.2407 20.9296 34.6924 20.4869 33.9834 20.3807C33.6491 20.3306 33.2662 20.3519 32.8131 20.4456C32.0234 20.609 31.4375 20.6712 31.0099 20.6832C32.6238 17.9507 33.9362 14.8348 34.6918 11.9016C35.9135 7.15862 35.2606 4.99794 34.4977 4.02061C32.4788 1.43373 29.5332 0.0440399 25.9797 0.00151779C24.084 -0.0217258 22.4199 0.35359 21.5517 0.623487C20.7434 0.480473 19.8743 0.400625 18.9624 0.385858C17.253 0.358512 15.7427 0.732185 14.4521 1.50018C13.7376 1.2579 12.5909 0.916358 11.2667 0.698414C8.1522 0.185689 5.64199 0.585205 3.80592 1.88589C1.58259 3.46071 0.551925 6.19688 0.742542 10.0184C0.803079 11.2317 1.47992 14.9234 2.54563 18.4244C3.15812 20.4367 3.81125 22.1078 4.48686 23.3917C5.44496 25.2122 6.47021 26.2843 7.62113 26.6693C8.26617 26.8848 9.43826 27.0357 10.671 26.0062C10.8272 26.1959 11.0357 26.3845 11.3124 26.5596C11.6637 26.7818 12.0934 26.9634 12.5225 27.071C14.0688 27.4586 15.5173 27.3617 16.753 26.8183C16.7607 27.0387 16.7665 27.2493 16.7714 27.4311C16.7796 27.726 16.7878 28.0152 16.7986 28.2857C16.8718 30.1142 16.9958 31.5361 17.3634 32.5309C17.3836 32.5856 17.4107 32.669 17.4394 32.7575C17.6228 33.3205 17.9294 34.2631 18.7096 35.0013C19.5175 35.766 20.4947 36.0003 21.3897 36.0003C21.8386 36.0003 22.2669 35.9414 22.6425 35.8607C23.9815 35.573 25.5022 35.1346 26.6022 33.5639C27.6423 32.079 28.1479 29.8426 28.2394 26.3187C28.2512 26.219 28.2622 26.1239 28.2727 26.0332L28.2945 25.847L28.5395 25.8686L28.6026 25.8729C29.9664 25.9352 31.634 25.6452 32.6581 25.1682C33.4673 24.7916 36.0607 23.4187 35.45 21.5653Z" fill="black"/>
<path d="M33.1181 21.9255C29.0631 22.7644 28.7843 21.3877 28.7843 21.3877C33.0656 15.0171 34.8555 6.93067 33.3111 4.95154C29.0973 -0.447119 21.8032 2.10612 21.6815 2.1723L21.6424 2.17941C20.8412 2.0126 19.9447 1.91334 18.9369 1.89679C17.1022 1.86672 15.7103 2.37917 14.6541 3.1823C14.6541 3.1823 1.64227 -2.19298 2.24753 9.94265C2.37624 12.5243 5.93772 29.4773 10.1855 24.3567C11.7382 22.4842 13.2384 20.9011 13.2384 20.9011C13.9834 21.3973 14.8754 21.6506 15.8105 21.5597L15.8832 21.4979C15.8606 21.7303 15.8709 21.9576 15.9122 22.2269C14.8179 23.4529 15.1396 23.6681 12.952 24.1197C10.7383 24.5772 12.0387 25.3916 12.8877 25.6046C13.917 25.8626 16.2983 26.2282 17.9072 23.9696L17.8431 24.2273C18.2718 24.5718 18.5729 26.4673 18.5224 28.1859C18.4719 29.9043 18.4383 31.0841 18.776 32.0056C19.114 32.9271 19.4507 35.0006 22.3266 34.3827C24.7295 33.8663 25.9747 32.5282 26.148 30.296C26.2709 28.7091 26.5492 28.9437 26.5667 27.5249L26.7899 26.8533C27.0471 24.7022 26.8308 24.0082 28.3111 24.331L28.6711 24.3627C29.7605 24.4123 31.1867 24.1869 32.0238 23.7968C33.8261 22.9581 34.8953 21.5576 33.1181 21.9255Z" fill="#336791"/>
<path d="M15.4156 11.0974C15.0502 11.0464 14.7193 11.0936 14.5518 11.2207C14.4578 11.2922 14.4286 11.3751 14.4207 11.4321C14.3997 11.5832 14.5052 11.7503 14.5701 11.8364C14.7537 12.0803 15.0217 12.2479 15.2871 12.2849C15.3255 12.2903 15.3638 12.2928 15.4019 12.2928C15.8443 12.2928 16.2467 11.9473 16.2821 11.6923C16.3265 11.3729 15.8641 11.1599 15.4156 11.0974ZM27.5213 11.1075C27.4864 10.8572 27.0422 10.7858 26.6206 10.8446C26.1996 10.9034 25.7913 11.094 25.8254 11.3449C25.8527 11.54 26.204 11.873 26.6199 11.873C26.6551 11.873 26.6905 11.8707 26.7263 11.8656C27.0039 11.8271 27.2076 11.6503 27.3044 11.5484C27.4516 11.3931 27.537 11.22 27.5213 11.1075Z" fill="white"/>
<path d="M34.4674 21.8305C34.3128 21.3616 33.8151 21.2108 32.9883 21.382C30.5333 21.8901 29.6541 21.5382 29.3655 21.325C31.2737 18.41 32.8435 14.8863 33.6903 11.5987C34.0915 10.0413 34.313 8.59503 34.3312 7.41618C34.3512 6.1223 34.1314 5.17151 33.6782 4.59068C31.8508 2.24924 29.1688 0.993267 25.9224 0.958812C23.6904 0.933651 21.8047 1.5064 21.4391 1.66747C20.6693 1.4755 19.8301 1.35764 18.9164 1.3426C17.2409 1.3154 15.7926 1.71764 14.5935 2.5376C14.0727 2.34317 12.7266 1.8798 11.0805 1.61387C8.23458 1.15447 5.9731 1.50257 4.35925 2.64903C2.43357 4.01713 1.54456 6.46261 1.71677 9.91746C1.77472 11.0798 2.4352 14.6555 3.47746 18.0798C4.84943 22.5869 6.3408 25.1383 7.90993 25.6632C8.0936 25.7246 8.30536 25.7676 8.53892 25.7676C9.11132 25.7676 9.81311 25.5089 10.5433 24.6286C11.4338 23.5573 12.3551 22.512 13.3059 21.494C13.9227 21.826 14.6004 22.0114 15.2934 22.03C15.2948 22.0482 15.2966 22.0663 15.2982 22.0844C15.1789 22.227 15.0621 22.3718 14.9478 22.5185C14.4675 23.1298 14.3676 23.2571 12.8218 23.5762C12.3821 23.6673 11.2142 23.9086 11.1971 24.7295C11.1785 25.6265 12.5776 26.0032 12.737 26.0431C13.2925 26.1825 13.8277 26.2513 14.338 26.2513C15.5792 26.2513 16.6715 25.8422 17.5444 25.0507C17.5176 28.2482 17.6505 31.399 18.0334 32.3589C18.347 33.1448 19.113 35.0654 21.5327 35.0653C21.8877 35.0653 22.2785 35.0239 22.7084 34.9314C25.2338 34.3886 26.3304 33.2694 26.7546 30.8019C26.9817 29.4831 27.3712 26.3341 27.5544 24.645C27.9411 24.766 28.4389 24.8214 28.9771 24.8213C30.0996 24.8213 31.3947 24.5821 32.207 24.2041C33.1194 23.7792 34.766 22.7364 34.4674 21.8305ZM28.4535 10.4165C28.4452 10.9152 28.3768 11.3679 28.3043 11.8404C28.2261 12.3486 28.1454 12.874 28.1251 13.5119C28.105 14.1326 28.1823 14.778 28.2571 15.4021C28.4082 16.6627 28.5632 17.9606 27.9631 19.2412C27.8634 19.0641 27.7746 18.881 27.6972 18.693C27.6226 18.5117 27.4606 18.2205 27.2364 17.8174C26.3639 16.2483 24.3206 12.5739 25.3666 11.0746C25.6781 10.6283 26.4688 10.1695 28.4535 10.4165ZM26.0478 1.96854C28.9567 2.03294 31.2577 3.12416 32.8868 5.21172C34.1363 6.81293 32.7604 14.0987 28.7772 20.3842C28.7372 20.3331 28.6969 20.2822 28.6564 20.2315L28.606 20.1683C29.6353 18.4637 29.434 16.7772 29.2549 15.282C29.1813 14.6683 29.1117 14.0887 29.1294 13.5443C29.1477 12.9673 29.2238 12.4723 29.2974 11.9938C29.3878 11.4041 29.4798 10.7939 29.4545 10.0746C29.4734 9.99907 29.4811 9.90993 29.4711 9.80409C29.4064 9.11433 28.621 7.04988 27.0202 5.18137C26.1446 4.15933 24.8677 3.0156 23.1241 2.24418C23.8741 2.08832 24.8996 1.94297 26.0478 1.96854ZM9.77056 23.9844C8.9661 24.9543 8.41062 24.7684 8.22792 24.7074C7.03758 24.3092 5.65633 21.7863 4.4386 17.7857C3.38488 14.324 2.76913 10.8431 2.72031 9.86699C2.56651 6.77999 3.31275 4.62855 4.93846 3.4724C7.5842 1.59104 11.934 2.71712 13.6819 3.28823C13.6568 3.31312 13.6307 3.33636 13.6058 3.36165C10.7376 6.2663 10.8056 11.2289 10.8127 11.5323C10.8124 11.6494 10.8222 11.8151 10.8356 12.043C10.885 12.8777 10.9768 14.4312 10.7314 16.1905C10.5034 17.8254 11.006 19.4255 12.1101 20.5807C12.2234 20.699 12.3425 20.8116 12.4669 20.9181C11.9755 21.4459 10.9075 22.613 9.77056 23.9844ZM12.8356 19.8835C11.9457 18.9524 11.5416 17.6573 11.7267 16.33C11.9857 14.4716 11.8901 12.853 11.8387 11.9834C11.8315 11.8617 11.8251 11.7551 11.8214 11.671C12.2404 11.2984 14.1822 10.2552 15.567 10.5733C16.1988 10.7184 16.5838 11.1499 16.7439 11.8921C17.5724 15.7345 16.8536 17.336 16.276 18.623C16.1569 18.8881 16.0445 19.1388 15.9484 19.398L15.874 19.5984C15.6856 20.1051 15.5102 20.5763 15.4016 21.0237C14.4556 21.0209 13.5353 20.6158 12.8356 19.8835ZM12.9808 25.0655C12.7046 24.9963 12.4561 24.8761 12.3104 24.7764C12.4321 24.719 12.6488 24.6408 13.0246 24.5631C14.8431 24.1878 15.1239 23.9228 15.7373 23.142C15.8778 22.9629 16.0372 22.76 16.258 22.5128L16.2583 22.5125C16.587 22.1433 16.7374 22.2059 17.0101 22.3194C17.2311 22.411 17.4464 22.6889 17.5337 22.9946C17.575 23.139 17.6213 23.413 17.4696 23.6263C16.1884 25.4251 14.3215 25.402 12.9808 25.0655ZM22.4979 33.9462C20.2732 34.4242 19.4855 33.2859 18.9664 31.9847C18.6314 31.1446 18.4667 27.3565 18.5836 23.173C18.585 23.1174 18.5772 23.0637 18.5619 23.013C18.5482 22.9132 18.5274 22.8144 18.4997 22.7174C18.326 22.1088 17.9026 21.5996 17.3947 21.3885C17.1929 21.3047 16.8226 21.1508 16.3776 21.265C16.4725 20.8729 16.637 20.43 16.8155 19.9505L16.8903 19.7488C16.9746 19.5214 17.0804 19.2859 17.1922 19.0365C17.7967 17.69 18.6245 15.8457 17.7261 11.6792C17.3896 10.1186 16.2657 9.35647 14.5622 9.53352C13.5409 9.6395 12.6065 10.0527 12.1405 10.2896C12.0402 10.3405 11.9486 10.3897 11.863 10.4376C11.9931 8.86521 12.4845 5.92664 14.3228 4.06746C15.4802 2.89706 17.0217 2.31897 18.8998 2.35015C22.6003 2.41085 24.9734 4.31517 26.3126 5.9022C27.4666 7.26959 28.0915 8.64713 28.3409 9.39009C26.4654 9.19883 25.1899 9.57002 24.5433 10.497C23.1366 12.5135 25.3128 16.4272 26.3588 18.3081C26.5506 18.6528 26.7162 18.9508 26.7682 19.0774C27.1088 19.9051 27.5498 20.4578 27.8717 20.8611C27.9705 20.9847 28.0662 21.1046 28.139 21.2093C27.5709 21.3736 26.5506 21.753 26.6436 23.6495C26.5686 24.6011 26.0354 29.0565 25.7645 30.6307C25.4068 32.7103 24.6436 33.4847 22.4979 33.9462ZM31.7839 23.2902C31.203 23.5605 30.231 23.7633 29.3076 23.8069C28.2877 23.8548 27.7685 23.6923 27.6464 23.5923C27.5891 22.4105 28.0277 22.287 28.492 22.1563C28.5649 22.1358 28.6361 22.1157 28.7048 22.0917C28.7475 22.1265 28.7943 22.1611 28.8456 22.195C29.6653 22.7376 31.1274 22.7961 33.1916 22.3688L33.2142 22.3643C32.9358 22.6253 32.4594 22.9756 31.7839 23.2902Z" fill="white"/>
</g>
<defs>
<clipPath id="clip0_156_326">
<rect width="36" height="36" fill="white"/>
</clipPath>
</defs>
</svg>
