<svg width="36" height="36" viewBox="0 0 36 36" fill="none" xmlns="http://www.w3.org/2000/svg">
<g clip-path="url(#clip0_156_302)">
<mask id="mask0_156_302" style="mask-type:luminance" maskUnits="userSpaceOnUse" x="1" y="-1" width="35" height="37">
<path d="M35.1113 -0.000488281H1.08008V35.9995H35.1113V-0.000488281Z" fill="white"/>
</mask>
<g mask="url(#mask0_156_302)">
<path d="M34.9707 6.04638L33.7051 25.1714L22.0332 -0.000488281L34.9707 6.04638ZM26.8145 30.7964L18.0957 35.8589L9.23631 30.7964L10.9238 26.437H25.127L26.8145 30.7964ZM18.0957 9.562L22.5957 20.812H13.4551L18.0957 9.562ZM2.3457 25.1714L1.08008 6.04638L14.0176 -0.000488281L2.3457 25.1714Z" fill="url(#paint0_linear_156_302)"/>
<path d="M34.9707 6.04638L33.7051 25.1714L22.0332 -0.000488281L34.9707 6.04638ZM26.8145 30.7964L18.0957 35.8589L9.23631 30.7964L10.9238 26.437H25.127L26.8145 30.7964ZM18.0957 9.562L22.5957 20.812H13.4551L18.0957 9.562ZM2.3457 25.1714L1.08008 6.04638L14.0176 -0.000488281L2.3457 25.1714Z" fill="url(#paint1_linear_156_302)"/>
</g>
</g>
<defs>
<linearGradient id="paint0_linear_156_302" x1="8.56135" y1="32.6105" x2="35.5332" y2="19.7855" gradientUnits="userSpaceOnUse">
<stop stop-color="#E40035"/>
<stop offset="0.2" stop-color="#F60A48"/>
<stop offset="0.4" stop-color="#F20755"/>
<stop offset="0.5" stop-color="#DC087D"/>
<stop offset="0.7" stop-color="#9717E7"/>
<stop offset="1" stop-color="#6C00F5"/>
</linearGradient>
<linearGradient id="paint1_linear_156_302" x1="7.33789" y1="4.31669" x2="24.9863" y2="24.4683" gradientUnits="userSpaceOnUse">
<stop stop-color="#FF31D9"/>
<stop offset="1" stop-color="#FF5BE1" stop-opacity="0"/>
</linearGradient>
<clipPath id="clip0_156_302">
<rect width="36" height="36" fill="white"/>
</clipPath>
</defs>
</svg>
