<svg width="36" height="36" viewBox="0 0 36 36" fill="none" xmlns="http://www.w3.org/2000/svg">
<path d="M34.1031 10.556C34.1028 9.9523 33.9737 9.41885 33.7126 8.961C33.4561 8.51079 33.0721 8.13347 32.5569 7.8351C28.3041 5.383 24.0473 2.93836 19.796 0.483735C18.6499 -0.177947 17.5386 -0.153824 16.401 0.517359C14.7083 1.51563 6.23348 6.37102 3.70812 7.83373C2.66811 8.4358 2.16203 9.35722 2.16178 10.5548C2.16016 15.4862 2.16178 20.4175 2.16016 25.349C2.1604 25.9394 2.28402 26.4625 2.53362 26.9134C2.79022 27.3773 3.17968 27.765 3.70675 28.0701C6.23226 29.5328 14.7081 34.3878 16.4005 35.3863C17.5386 36.0579 18.6499 36.082 19.7964 35.42C24.0478 32.9652 28.3049 30.5207 32.5582 28.0686C33.0853 27.7636 33.4748 27.3757 33.7314 26.9122C33.9806 26.4613 34.1045 25.9382 34.1047 25.3476C34.1047 25.3476 34.1047 15.4875 34.1031 10.556Z" fill="#5C8DBC"/>
<path d="M18.1814 17.9038L2.53369 26.9134C2.79029 27.3772 3.17975 27.7649 3.70684 28.07C6.23231 29.5328 14.7082 34.3878 16.4006 35.3863C17.5387 36.0578 18.65 36.0819 19.7965 35.4199C24.0479 32.9652 28.305 30.5207 32.5584 28.0686C33.0854 27.7636 33.4749 27.3756 33.7315 26.9122L18.1814 17.9038Z" fill="#1A4674"/>
<path d="M13.5464 20.5725C14.4569 22.1621 16.1686 23.2342 18.1322 23.2342C20.1079 23.2342 21.8293 22.1485 22.7352 20.5419L18.1811 17.9038L13.5464 20.5725Z" fill="#1A4674"/>
<path d="M34.1029 10.5559C34.1027 9.95223 33.9736 9.41879 33.7125 8.96094L18.1812 17.9038L33.7312 26.9122C33.9804 26.4612 34.1043 25.9381 34.1046 25.3476C34.1046 25.3476 34.1046 15.4874 34.1029 10.5559Z" fill="#1B598E"/>
<path d="M33.2481 18.5478H32.033V19.7632H30.8176V18.5478H29.6026V17.3328H30.8176V16.1177H32.033V17.3328H33.2481V18.5478ZM28.8142 18.5478H27.5992V19.7632H26.3841V18.5478H25.1689V17.3328H26.3841V16.1177H27.5992V17.3328H28.8142V18.5478Z" fill="white"/>
<path d="M22.7353 20.5421C21.8294 22.1486 20.1079 23.2344 18.1323 23.2344C16.1687 23.2344 14.457 22.1623 13.5464 20.5727C13.0891 19.7751 12.8488 18.8714 12.8498 17.9519C12.8498 15.0346 15.2149 12.6696 18.1323 12.6696C20.0832 12.6696 21.7859 13.7284 22.7009 15.3017L27.3181 12.643C25.4829 9.47506 22.0566 7.34375 18.1323 7.34375C12.2733 7.34375 7.52393 12.0933 7.52393 17.9519C7.52393 19.874 8.03523 21.6765 8.9289 23.2312C10.7595 26.4159 14.1955 28.5603 18.1323 28.5603C22.0762 28.5603 25.5176 26.4072 27.3456 23.2132L22.7353 20.5421Z" fill="white"/>
</svg>
