<svg width="36" height="36" viewBox="0 0 36 36" fill="none" xmlns="http://www.w3.org/2000/svg">
<g clip-path="url(#clip0_158_65)">
<path d="M35.645 14.7919C35.5473 14.7144 34.6359 14.0262 32.7137 14.0262C32.2061 14.0284 31.6996 14.0719 31.1992 14.1564C30.8271 11.6064 28.7189 10.3632 28.6244 10.3074L28.1083 10.0098L27.7688 10.4997C27.3437 11.1577 27.0333 11.8831 26.8511 12.645C26.507 14.1006 26.7163 15.4678 27.4557 16.6366C26.5628 17.1341 25.1305 17.2566 24.8406 17.2674H1.1269C0.507498 17.2683 0.00488789 17.7688 0.00151231 18.3882C-0.0261474 20.4656 0.325821 22.5307 1.04009 24.4817C1.85698 26.624 3.0723 28.202 4.65342 29.1677C6.42523 30.2528 9.30379 30.8728 12.5668 30.8728C14.0408 30.8775 15.5122 30.7441 16.9614 30.4745C18.976 30.1046 20.9145 29.4004 22.6968 28.3911C24.1654 27.5406 25.4872 26.4587 26.6109 25.187C28.4897 23.0602 29.6089 20.6916 30.4413 18.5866H30.773C32.83 18.5866 34.0949 17.7635 34.7924 17.0737C35.256 16.6338 35.6179 16.0978 35.8527 15.5034L35.9999 15.0725L35.645 14.7919Z" fill="#2496ED"/>
<path d="M3.32482 16.5731H6.50256C6.65582 16.5731 6.78002 16.4488 6.78002 16.2956V13.465C6.78088 13.3118 6.65733 13.1869 6.50411 13.186H6.50256H3.32482C3.17155 13.186 3.04736 13.3103 3.04736 13.4635V13.465V16.2956C3.04736 16.4488 3.17155 16.5731 3.32482 16.5731Z" fill="#2496ED"/>
<path d="M7.70388 16.5731H10.8816C11.0349 16.5731 11.1591 16.4488 11.1591 16.2956V13.465C11.1599 13.3118 11.0364 13.1869 10.8831 13.186H10.8816H7.70384C7.54972 13.186 7.4248 13.3109 7.4248 13.465V16.2956C7.42574 16.4491 7.55037 16.5731 7.70388 16.5731Z" fill="#2496ED"/>
<path d="M12.1496 16.5731H15.3273C15.4806 16.5731 15.6048 16.4488 15.6048 16.2956V13.465C15.6056 13.3118 15.4821 13.1869 15.3288 13.186H15.3272H12.1495C11.9962 13.186 11.8721 13.3103 11.8721 13.4635V13.465V16.2956C11.8721 16.4488 11.9963 16.5731 12.1496 16.5731Z" fill="#2496ED"/>
<path d="M16.5426 16.5731H19.7203C19.8738 16.5731 19.9985 16.4491 19.9993 16.2956V13.465C19.9993 13.3109 19.8745 13.186 19.7203 13.186H16.5426C16.3893 13.186 16.2651 13.3103 16.2651 13.4635V13.465V16.2956C16.2651 16.4488 16.3894 16.5731 16.5426 16.5731Z" fill="#2496ED"/>
<path d="M7.7038 12.5008H10.8816C11.035 12.4999 11.159 12.3752 11.159 12.2217V9.39122C11.159 9.23797 11.0348 9.11377 10.8816 9.11377H7.7038C7.55034 9.11377 7.42563 9.23772 7.4248 9.39122V12.2217C7.42563 12.3755 7.55005 12.4999 7.7038 12.5008Z" fill="#2496ED"/>
<path d="M12.1495 12.5008H15.3273C15.4807 12.4999 15.6047 12.3752 15.6047 12.2217V9.39122C15.6047 9.23797 15.4805 9.11377 15.3273 9.11377H12.1495C11.9963 9.11377 11.8721 9.23801 11.8721 9.39122V12.2217C11.8721 12.3752 11.9961 12.4999 12.1495 12.5008Z" fill="#2496ED"/>
<path d="M16.5426 12.5008H19.7203C19.8741 12.4999 19.9985 12.3755 19.9993 12.2217V9.39122C19.9985 9.23772 19.8738 9.11377 19.7203 9.11377H16.5426C16.3893 9.11377 16.2651 9.23801 16.2651 9.39122V12.2217C16.2651 12.3752 16.3891 12.4999 16.5426 12.5008Z" fill="#2496ED"/>
<path d="M16.5426 8.42706H19.7203C19.8738 8.42706 19.9985 8.30308 19.9993 8.14961V5.31749C19.9985 5.16399 19.8738 5.04004 19.7203 5.04004H16.5426C16.3893 5.04004 16.2651 5.16424 16.2651 5.31749V8.14958C16.2651 8.30283 16.3894 8.42706 16.5426 8.42706Z" fill="#2496ED"/>
<path d="M20.9747 16.5731H24.1524C24.306 16.5731 24.4306 16.4491 24.4315 16.2956V13.465C24.4315 13.3109 24.3066 13.186 24.1524 13.186H20.9747C20.8215 13.186 20.6973 13.3103 20.6973 13.4635V13.465V16.2956C20.6973 16.4488 20.8215 16.5731 20.9747 16.5731Z" fill="#2496ED"/>
</g>
<defs>
<clipPath id="clip0_158_65">
<rect width="36" height="36" fill="white"/>
</clipPath>
</defs>
</svg>
