<svg width="36" height="36" viewBox="0 0 36 36" fill="none" xmlns="http://www.w3.org/2000/svg">
<g clip-path="url(#clip0_158_43)">
<path d="M35.3211 16.3965L19.6031 0.679391C18.6985 -0.225813 17.2304 -0.225813 16.3246 0.679391L13.0607 3.94328L17.2011 8.08372C18.1633 7.7586 19.2666 7.97669 20.0336 8.74367C20.8042 9.51554 21.0208 10.6283 20.6878 11.5936L24.678 15.584C25.6434 15.2514 26.7573 15.4665 27.5283 16.2388C28.6059 17.316 28.6059 19.0619 27.5283 20.1398C26.4504 21.2178 24.7046 21.2178 23.6261 20.1398C22.8156 19.3284 22.6153 18.138 23.0257 17.1394L19.3044 13.4182L19.304 23.2109C19.5738 23.3443 19.8202 23.5204 20.0336 23.7326C21.1112 24.8098 21.1112 26.5558 20.0336 27.6345C18.9557 28.712 17.209 28.712 16.1326 27.6345C15.055 26.5558 15.055 24.8099 16.1326 23.7327C16.3909 23.4744 16.6978 23.2698 17.0356 23.1307V13.2468C16.6973 13.1087 16.3902 12.9039 16.1326 12.6447C15.3162 11.8294 15.1199 10.6314 15.5382 9.62891L11.4567 5.54698L0.679219 16.3238C-0.226406 17.2298 -0.226406 18.6981 0.679219 19.6034L16.3974 35.3208C17.3024 36.226 18.7702 36.226 19.6762 35.3208L35.3209 19.6764C36.2264 18.7708 36.2264 17.3017 35.3211 16.3965Z" fill="#DE4C36"/>
</g>
<defs>
<clipPath id="clip0_158_43">
<rect width="36" height="36" fill="white"/>
</clipPath>
</defs>
</svg>
