<svg width="36" height="36" viewBox="0 0 36 36" fill="none" xmlns="http://www.w3.org/2000/svg">
<g clip-path="url(#clip0_158_50)">
<path d="M17.9998 0.360352C8.05996 0.360352 -0.000244141 8.41914 -0.000244141 18.3604C-0.000244141 26.3134 5.15731 33.0606 12.3094 35.4408C13.2089 35.6073 13.5392 35.0503 13.5392 34.5748C13.5392 34.1456 13.5224 32.7276 13.5148 31.2236C8.50704 32.3124 7.45037 29.0998 7.45037 29.0998C6.63158 27.0192 5.45179 26.466 5.45179 26.466C3.81872 25.3488 5.57491 25.3717 5.57491 25.3717C7.38247 25.4988 8.33424 27.2267 8.33424 27.2267C9.93962 29.9786 12.5451 29.1829 13.5723 28.7231C13.7338 27.5596 14.2003 26.7656 14.7151 26.3161C10.7171 25.8608 6.51412 24.3174 6.51412 17.4204C6.51412 15.4553 7.2173 13.8494 8.36884 12.5889C8.18192 12.1355 7.56586 10.3047 8.54318 7.82535C8.54318 7.82535 10.0547 7.34155 13.4945 9.67046C14.9302 9.27151 16.4701 9.07164 17.9998 9.06483C19.5296 9.07164 21.0706 9.27151 22.5091 9.67046C25.9448 7.34155 27.4542 7.82535 27.4542 7.82535C28.4339 10.3047 27.8176 12.1355 27.6307 12.5889C28.7848 13.8494 29.4831 15.4551 29.4831 17.4204C29.4831 24.3338 25.2723 25.8562 21.2641 26.3017C21.9097 26.8604 22.485 27.9558 22.485 29.6351C22.485 32.0435 22.4641 33.9819 22.4641 34.5748C22.4641 35.0538 22.7881 35.6151 23.7006 35.4384C30.8487 33.0555 35.9998 26.3108 35.9998 18.3604C35.9998 8.41914 27.9407 0.360352 17.9998 0.360352Z" fill="#161614"/>
<path d="M6.74138 26.002C6.70185 26.0914 6.56095 26.1182 6.43293 26.0569C6.30233 25.9982 6.22892 25.8762 6.27129 25.7864C6.3101 25.6944 6.45101 25.6687 6.58129 25.7305C6.71215 25.7891 6.78671 25.9122 6.74138 26.002ZM7.6268 26.792C7.54098 26.8716 7.37311 26.8346 7.25921 26.7089C7.14145 26.5834 7.11945 26.4156 7.20654 26.3348C7.29506 26.2553 7.45782 26.2924 7.57586 26.4181C7.69358 26.545 7.71659 26.7116 7.6268 26.792ZM8.23427 27.8028C8.12389 27.8794 7.94346 27.8076 7.83207 27.6475C7.72181 27.4875 7.72181 27.2956 7.83449 27.2186C7.94627 27.1417 8.12389 27.2108 8.23682 27.3697C8.34691 27.5324 8.34705 27.7243 8.23427 27.8028ZM9.26145 28.9735C9.16274 29.0822 8.95268 29.0532 8.79882 28.9047C8.64157 28.7595 8.59765 28.5535 8.69661 28.4447C8.79641 28.3357 9.00776 28.3663 9.16274 28.5136C9.31902 28.6584 9.36665 28.8659 9.26145 28.9735ZM10.589 29.3688C10.5457 29.5097 10.3433 29.5738 10.1394 29.5139C9.93581 29.4522 9.80253 29.2871 9.84365 29.1446C9.88598 29.0027 10.0893 28.936 10.2947 29.0001C10.4979 29.0615 10.6314 29.2254 10.589 29.3688ZM12.1001 29.5364C12.1052 29.6849 11.9323 29.808 11.7182 29.8107C11.503 29.8153 11.3289 29.6952 11.3266 29.5492C11.3266 29.3993 11.4956 29.2773 11.7108 29.2738C11.9248 29.2696 12.1001 29.3888 12.1001 29.5364ZM13.5844 29.4795C13.6101 29.6243 13.4613 29.7731 13.2489 29.8126C13.0399 29.8508 12.8465 29.7614 12.8198 29.6178C12.7938 29.4693 12.9454 29.3207 13.154 29.2821C13.3669 29.2451 13.5573 29.3323 13.5844 29.4795Z" fill="#161614"/>
</g>
<defs>
<clipPath id="clip0_158_50">
<rect width="36" height="36" fill="white"/>
</clipPath>
</defs>
</svg>
