<svg width="36" height="36" viewBox="0 0 36 36" fill="none" xmlns="http://www.w3.org/2000/svg">
<mask id="mask0_156_292" style="mask-type:luminance" maskUnits="userSpaceOnUse" x="0" y="14" width="36" height="8">
<path d="M36 14.4004H0V21.71H36V14.4004Z" fill="white"/>
</mask>
<g mask="url(#mask0_156_292)">
<path d="M23.9316 14.4033H30.2022V15.5607H27.7148V21.6495H26.4709V15.5607H23.9316V14.4033Z" fill="black"/>
<path d="M13.6192 14.4033V15.5607H8.5929V17.4226H12.635V18.58H8.5929V20.4921H13.6192V21.6495H7.34914V15.5607H7.34863V14.4033H13.6192Z" fill="black"/>
<path d="M16.7502 14.4062H15.1226L20.9525 21.6525H22.585L19.6696 18.0318L22.5803 14.4118L20.9525 14.4143L18.8547 17.0198L16.7502 14.4062Z" fill="black"/>
<path d="M18.4202 19.5823L17.6051 18.5688L15.1177 21.658H16.75L18.4202 19.5823Z" fill="black"/>
<path fill-rule="evenodd" clip-rule="evenodd" d="M7.39253 21.6496L1.55468 14.4004H0V21.6466H1.24375V15.9493L5.83006 21.6496H7.39253Z" fill="black"/>
<path d="M30.4819 21.6055C30.3909 21.6055 30.3134 21.574 30.2485 21.5109C30.1836 21.4478 30.1515 21.3714 30.1524 21.2808C30.1515 21.1928 30.1836 21.1173 30.2485 21.0542C30.3134 20.991 30.3909 20.9595 30.4819 20.9595C30.5696 20.9595 30.6462 20.991 30.7111 21.0542C30.7769 21.1173 30.8097 21.1928 30.8106 21.2808C30.8097 21.3406 30.7945 21.3954 30.7642 21.4444C30.733 21.4943 30.6935 21.5333 30.6437 21.5615C30.5948 21.5906 30.5409 21.6055 30.4819 21.6055Z" fill="black"/>
<path d="M32.6048 18.5527H33.1559V20.6761C33.1551 20.8713 33.1129 21.0382 33.0304 21.1785C32.947 21.3189 32.8315 21.426 32.6832 21.5016C32.5357 21.5763 32.3629 21.6145 32.1666 21.6145C31.9871 21.6145 31.8261 21.5821 31.6829 21.519C31.5396 21.4559 31.4258 21.3612 31.3424 21.2367C31.2581 21.1121 31.2168 20.9568 31.2168 20.7708H31.7689C31.7696 20.8522 31.7882 20.9228 31.8236 20.9817C31.8589 21.0407 31.9078 21.0855 31.9702 21.1171C32.0334 21.1486 32.1059 21.1644 32.1876 21.1644C32.2761 21.1644 32.352 21.1461 32.4135 21.1088C32.475 21.0722 32.5222 21.0174 32.5551 20.9444C32.5871 20.8721 32.604 20.7824 32.6048 20.6761V18.5527Z" fill="black"/>
<path d="M35.4235 19.3833C35.4101 19.2546 35.3511 19.1541 35.2483 19.0827C35.1446 19.0104 35.0107 18.9748 34.8463 18.9748C34.7309 18.9748 34.6315 18.9922 34.5489 19.0263C34.4663 19.0611 34.4022 19.1076 34.3583 19.1666C34.3146 19.2255 34.2927 19.2928 34.2909 19.3684C34.2909 19.4315 34.3061 19.4863 34.3356 19.532C34.3651 19.5785 34.4047 19.6175 34.4561 19.6491C34.5067 19.6815 34.5631 19.708 34.6247 19.7296C34.687 19.7512 34.7494 19.7695 34.8117 19.7844L35.0991 19.855C35.2146 19.8816 35.3267 19.9173 35.4337 19.963C35.5407 20.0078 35.6376 20.0651 35.7227 20.134C35.8078 20.2029 35.8753 20.286 35.925 20.3832C35.9747 20.4803 36 20.5941 36 20.7253C36 20.9021 35.9545 21.0574 35.8626 21.192C35.7708 21.3257 35.6385 21.4303 35.4648 21.5059C35.2921 21.5806 35.0831 21.6188 34.837 21.6188C34.5994 21.6188 34.3921 21.5823 34.2177 21.5092C34.0424 21.437 33.9058 21.3306 33.8072 21.1911C33.7086 21.0516 33.6555 20.8814 33.6479 20.6813H34.1941C34.2017 20.7859 34.2354 20.8731 34.2927 20.9437C34.3508 21.0135 34.4266 21.0649 34.5194 21.0998C34.6129 21.1338 34.7174 21.1513 34.8329 21.1513C34.9533 21.1513 35.0595 21.133 35.1513 21.0973C35.2424 21.0616 35.314 21.0118 35.3654 20.947C35.4177 20.8831 35.4438 20.8075 35.4447 20.7211C35.4438 20.6423 35.4202 20.5766 35.3747 20.5251C35.3284 20.4737 35.2643 20.4305 35.1825 20.3956C35.1 20.3607 35.0039 20.3292 34.8943 20.3018L34.5455 20.2137C34.2935 20.1498 34.0937 20.0526 33.9479 19.9223C33.8013 19.7919 33.7288 19.6192 33.7288 19.4024C33.7288 19.2247 33.7777 19.0686 33.8764 18.9349C33.974 18.8012 34.1081 18.6974 34.2775 18.6235C34.4477 18.5487 34.6399 18.5122 34.8538 18.5122C35.0713 18.5122 35.2617 18.5487 35.4261 18.6235C35.5904 18.6974 35.7194 18.8004 35.8129 18.9316C35.9064 19.0628 35.9553 19.2131 35.9579 19.3833H35.4235Z" fill="black"/>
</g>
</svg>
