<svg width="36" height="36" viewBox="0 0 36 36" fill="none" xmlns="http://www.w3.org/2000/svg">
<path d="M17.931 21.1738C19.6665 21.1738 21.0734 19.7529 21.0734 18C21.0734 16.2471 19.6665 14.8262 17.931 14.8262C16.1955 14.8262 14.7886 16.2471 14.7886 18C14.7886 19.7529 16.1955 21.1738 17.931 21.1738Z" fill="#61DAFB"/>
<path d="M17.9311 24.5026C27.2436 24.5026 34.7929 21.5913 34.7929 18.0001C34.7929 14.4088 27.2436 11.4976 17.9311 11.4976C8.61861 11.4976 1.06934 14.4088 1.06934 18.0001C1.06934 21.5913 8.61861 24.5026 17.9311 24.5026Z" stroke="#61DAFB" stroke-width="2"/>
<path d="M12.3556 21.2514C17.0118 29.3969 23.2827 34.5445 26.362 32.7488C29.4413 30.9532 28.163 22.8944 23.5067 14.7489C18.8505 6.60333 12.5796 1.45574 9.50026 3.25136C6.42095 5.04698 7.6993 13.1059 12.3556 21.2514Z" stroke="#61DAFB" stroke-width="2"/>
<path d="M12.3556 14.7488C7.69933 22.8943 6.42094 30.9532 9.50025 32.7488C12.5796 34.5445 18.8505 29.3969 23.5067 21.2514C28.163 13.1058 29.4413 5.04698 26.362 3.25136C23.2827 1.45574 17.0118 6.60334 12.3556 14.7488Z" stroke="#61DAFB" stroke-width="2"/>
</svg>
