<svg width="36" height="36" viewBox="0 0 36 36" fill="none" xmlns="http://www.w3.org/2000/svg">
<g clip-path="url(#clip0_158_37)">
<path d="M0.34251 12.7795C0.34251 12.7795 -0.534315 12.1475 0.517875 11.3036L2.96933 9.11149C2.96933 9.11149 3.67078 8.37349 4.41245 9.01648L27.0345 26.1438V34.3568C27.0345 34.3568 27.0236 35.6464 25.3686 35.504L0.34251 12.7795Z" fill="#2489CA"/>
<path d="M6.17335 18.0737L0.342467 23.3749C0.342467 23.3749 -0.256697 23.8206 0.342467 24.617L3.04967 27.0795C3.04967 27.0795 3.69266 27.7699 4.64256 26.9845L10.8242 22.2971L6.17335 18.0737Z" fill="#1070B3"/>
<path d="M16.4103 18.1173L27.104 9.95185L27.0346 1.78272C27.0346 1.78272 26.5779 -0.000159681 25.0544 0.927816L10.8242 13.8793L16.4103 18.1173Z" fill="#0877B9"/>
<path d="M25.3686 35.5152C25.9897 36.151 26.7423 35.9426 26.7423 35.9426L35.0758 31.8362C36.1426 31.1091 35.9928 30.2067 35.9928 30.2067V5.68483C35.9928 4.60706 34.8895 4.23442 34.8895 4.23442L27.6666 0.752673C26.0884 -0.222796 25.0544 0.92804 25.0544 0.92804C25.0544 0.92804 26.3843 -0.0291633 27.0346 1.78295V34.2073C27.0346 34.4301 26.9871 34.6493 26.8921 34.8466C26.7021 35.2302 26.2893 35.5883 25.2992 35.4385L25.3686 35.5152Z" fill="#3C99D4"/>
</g>
<defs>
<clipPath id="clip0_158_37">
<rect width="36" height="36" fill="white"/>
</clipPath>
</defs>
</svg>
