<svg width="36" height="36" viewBox="0 0 36 36" fill="none" xmlns="http://www.w3.org/2000/svg">
<g clip-path="url(#clip0_160_154)">
<path d="M18 35.9995C27.9411 35.9995 36 27.9407 36 17.9995C36 8.05839 27.9411 -0.000488281 18 -0.000488281C8.05889 -0.000488281 0 8.05839 0 17.9995C0 27.9407 8.05889 35.9995 18 35.9995Z" fill="black"/>
<path d="M29.9014 31.5039L13.8282 10.7998H10.7998V25.1938H13.2225V13.8765L27.9996 32.9689C28.6664 32.5225 29.3016 32.0329 29.9014 31.5039Z" fill="url(#paint0_linear_160_154)"/>
<path d="M25.4 10.7998H23V25.1998H25.4V10.7998Z" fill="url(#paint1_linear_160_154)"/>
</g>
<defs>
<linearGradient id="paint0_linear_160_154" x1="21.7998" y1="23.2998" x2="28.8998" y2="32.0998" gradientUnits="userSpaceOnUse">
<stop stop-color="white"/>
<stop offset="1" stop-color="white" stop-opacity="0"/>
</linearGradient>
<linearGradient id="paint1_linear_160_154" x1="24.2" y1="10.7998" x2="24.1598" y2="21.3749" gradientUnits="userSpaceOnUse">
<stop stop-color="white"/>
<stop offset="1" stop-color="white" stop-opacity="0"/>
</linearGradient>
<clipPath id="clip0_160_154">
<rect width="36" height="36" fill="white"/>
</clipPath>
</defs>
</svg>
