<svg width="36" height="36" viewBox="0 0 36 36" fill="none" xmlns="http://www.w3.org/2000/svg">
<g clip-path="url(#clip0_156_309)">
<path d="M16.6601 0.384558C17.5527 -0.12638 18.7153 -0.128688 19.6072 0.384558C24.0941 2.91989 28.5824 5.45125 33.0685 7.9881C33.9123 8.46341 34.4767 9.40247 34.4681 10.3747V25.6282C34.4744 26.6407 33.8542 27.6022 32.964 28.0667C28.4919 30.5881 24.0221 33.1125 19.5507 35.6339C18.6396 36.1548 17.4536 36.1148 16.571 35.5511C15.2302 34.7738 13.8872 34.0004 12.5463 33.224C12.2723 33.0606 11.9634 32.9306 11.7699 32.6649C11.941 32.4344 12.2467 32.4057 12.4953 32.305C13.0549 32.1271 13.5689 31.8414 14.0831 31.5642C14.2131 31.4752 14.3718 31.5093 14.4964 31.5889C15.6429 32.2463 16.7793 32.9228 17.9296 33.5738C18.1751 33.7155 18.4235 33.5274 18.6333 33.4105C23.0218 30.9302 27.4158 28.4592 31.8036 25.9781C31.9661 25.8999 32.056 25.7273 32.0428 25.5492C32.0459 20.5174 32.0436 15.4847 32.0443 10.4529C32.063 10.2508 31.946 10.065 31.7633 9.98236C27.3067 7.47254 22.8524 4.95888 18.3965 2.44844C18.3193 2.39536 18.2278 2.36689 18.1342 2.36675C18.0404 2.36661 17.9489 2.39482 17.8716 2.44767C13.4157 4.95888 8.96215 7.47485 4.50628 9.98455C4.32423 10.0674 4.20201 10.2501 4.22368 10.4529C4.22448 15.4847 4.22368 20.5174 4.22368 25.55C4.21598 25.6369 4.23506 25.7241 4.27837 25.7998C4.32171 25.8755 4.3872 25.9362 4.46604 25.9735C5.65508 26.6478 6.84571 27.3173 8.03554 27.9893C8.70583 28.3501 9.52886 28.5645 10.2674 28.288C10.9191 28.0543 11.3759 27.3893 11.3635 26.6973C11.3696 21.6949 11.3604 16.6916 11.3681 11.6899C11.3518 11.4679 11.5625 11.2844 11.7784 11.3053C12.3497 11.3014 12.9218 11.2976 13.4931 11.3068C13.7316 11.3014 13.8957 11.5406 13.8662 11.7643C13.8639 16.7984 13.8724 21.8327 13.8624 26.8668C13.8639 28.2084 13.3127 29.6683 12.0718 30.3247C10.5429 31.1167 8.65327 30.9488 7.14289 30.1893C5.83537 29.5367 4.58757 28.7665 3.30324 28.0674C2.41073 27.6054 1.79363 26.6401 1.79992 25.6284V10.3747C1.79056 9.38231 2.37739 8.42622 3.24746 7.95786C7.71885 5.43444 12.1894 2.90912 16.6601 0.384558Z" fill="#8CC84B"/>
<path d="M20.5609 10.9506C22.5111 10.8251 24.5988 10.8762 26.3537 11.837C27.7124 12.5732 28.4656 14.1183 28.4896 15.6278C28.4517 15.8314 28.2388 15.9437 28.0444 15.9297C27.4786 15.9289 26.9127 15.9374 26.3469 15.9259C26.1069 15.9351 25.9674 15.7138 25.9372 15.5016C25.7746 14.7794 25.3808 14.0641 24.701 13.7157C23.6575 13.1932 22.4475 13.2195 21.3096 13.2304C20.4789 13.2745 19.5856 13.3464 18.8818 13.8349C18.3415 14.205 18.1774 14.9519 18.3702 15.5535C18.552 15.9855 19.0507 16.1248 19.4586 16.2533C21.8088 16.868 24.2993 16.8068 26.6046 17.6158C27.559 17.9455 28.4927 18.5866 28.8194 19.5859C29.2467 20.9252 29.0594 22.5261 28.1065 23.6014C27.3338 24.4862 26.2083 24.9677 25.0858 25.2293C23.5924 25.5623 22.0427 25.5707 20.5262 25.4229C19.1001 25.2603 17.6162 24.8857 16.5153 23.9141C15.574 23.0967 15.1142 21.8231 15.1598 20.5939C15.1707 20.3863 15.3774 20.2416 15.5763 20.2587C16.1461 20.254 16.7159 20.2525 17.2857 20.2594C17.5132 20.2431 17.682 20.4398 17.6936 20.6543C17.7988 21.3424 18.0574 22.0647 18.6574 22.4727C19.8155 23.2198 21.2685 23.1686 22.5946 23.1895C23.6931 23.1408 24.9263 23.1261 25.8227 22.4C26.2957 21.9858 26.4359 21.293 26.308 20.6969C26.1696 20.1936 25.6431 19.9591 25.191 19.8058C22.871 19.0719 20.3527 19.3382 18.0551 18.5083C17.1223 18.1786 16.2203 17.5553 15.8619 16.5971C15.3619 15.2408 15.591 13.5632 16.6438 12.5243C17.6703 11.4909 19.1521 11.0931 20.5609 10.9506Z" fill="#8CC84B"/>
</g>
<defs>
<clipPath id="clip0_156_309">
<rect width="36" height="36" fill="white"/>
</clipPath>
</defs>
</svg>
